<svg id="visual" viewBox="0 0 450 900" width="450" height="900" xmlns="http://www.w3.org/2000/svg" xmlns:xlink="http://www.w3.org/1999/xlink" version="1.1"><path d="M342 900L336.5 875C331 850 320 800 320.3 750C320.7 700 332.3 650 340 600C347.7 550 351.3 500 358.7 450C366 400 377 350 383.7 300C390.3 250 392.7 200 381.2 150C369.7 100 344.3 50 331.7 25L319 0L450 0L450 25C450 50 450 100 450 150C450 200 450 250 450 300C450 350 450 400 450 450C450 500 450 550 450 600C450 650 450 700 450 750C450 800 450 850 450 875L450 900Z" fill="#293559" stroke-linecap="round" stroke-linejoin="miter"></path></svg>